<?xml version="1.0" standalone="no"?>
<!DOCTYPE svg PUBLIC "-//W3C//DTD SVG 20010904//EN"
 "http://www.w3.org/TR/2001/REC-SVG-20010904/DTD/svg10.dtd">
<svg version="1.0" xmlns="http://www.w3.org/2000/svg"
 width="13888.000000pt" height="13888.000000pt" viewBox="0 0 13888.000000 13888.000000"
 preserveAspectRatio="xMidYMid meet">

<g transform="translate(0.000000,13888.000000) scale(0.100000,-0.100000)"
fill="#000000" stroke="none">
<path d="M18215 138844 c-49 -114 -131 -342 -257 -714 -77 -228 -198 -581
-270 -785 -119 -339 -351 -1020 -678 -1990 -70 -209 -201 -594 -290 -855 -89
-261 -305 -898 -480 -1415 -175 -517 -343 -1012 -373 -1100 -214 -620 -316
-920 -517 -1515 -126 -371 -299 -882 -385 -1135 -86 -253 -237 -696 -335 -985
-98 -289 -287 -844 -420 -1235 -133 -390 -325 -955 -427 -1255 -102 -300 -213
-628 -248 -730 -35 -102 -147 -430 -249 -730 -268 -789 -451 -1325 -651 -1910
-169 -492 -230 -671 -440 -1290 -51 -151 -116 -340 -143 -420 -64 -185 -311
-910 -547 -1605 -101 -297 -213 -625 -249 -730 -69 -201 -413 -1213 -751
-2210 -112 -330 -229 -674 -260 -765 -31 -91 -148 -435 -260 -765 -112 -330
-272 -800 -355 -1045 -84 -245 -196 -575 -250 -735 -54 -159 -166 -490 -250
-735 -84 -245 -201 -589 -260 -765 -59 -176 -172 -507 -250 -735 -78 -228
-188 -552 -245 -720 -57 -168 -129 -379 -160 -470 -32 -91 -145 -424 -252
-740 -107 -316 -212 -624 -233 -685 -21 -60 -88 -256 -148 -435 -61 -179 -170
-498 -242 -710 -73 -212 -178 -522 -235 -690 -92 -273 -440 -1294 -611 -1795
-36 -104 -161 -473 -279 -820 -117 -346 -288 -850 -380 -1120 -92 -269 -254
-746 -360 -1060 -106 -313 -284 -835 -395 -1160 -111 -324 -286 -840 -390
-1145 -285 -840 -577 -1697 -916 -2690 -75 -217 -232 -681 -351 -1030 -118
-349 -235 -693 -260 -765 -24 -71 -91 -267 -148 -435 -57 -168 -165 -485 -240
-705 -75 -220 -183 -537 -240 -705 -105 -311 -488 -1433 -597 -1750 -33 -96
-109 -319 -168 -495 -59 -176 -174 -513 -255 -750 -81 -236 -193 -567 -250
-735 -57 -168 -165 -485 -240 -705 -676 -1976 -936 -2751 -975 -2900 -41 -155
-49 -258 -25 -305 17 -33 668 -690 1160 -1170 941 -917 1897 -1853 2245 -2197
146 -144 288 -283 315 -309 28 -26 174 -169 325 -318 151 -149 374 -368 495
-486 205 -200 336 -328 945 -924 129 -126 366 -358 525 -516 160 -157 419
-411 575 -564 314 -308 650 -639 1131 -1111 889 -874 1315 -1292 1774 -1740
220 -214 503 -491 630 -615 126 -124 300 -293 385 -376 85 -83 220 -213 298
-290 79 -76 148 -139 154 -139 21 0 228 579 581 1630 102 303 218 642 257 755
76 216 392 1142 715 2095 106 314 216 638 245 720 28 83 100 294 160 470 59
176 167 493 240 705 73 212 174 509 225 660 51 151 186 547 300 880 113 333
280 821 370 1085 90 264 184 541 210 615 26 74 143 419 260 765 117 347 291
857 385 1135 95 278 223 656 285 840 133 395 386 1140 620 1825 92 270 243
713 335 985 93 272 230 675 305 895 75 220 183 537 240 705 57 168 135 397
173 510 108 316 522 1533 842 2475 159 468 390 1149 515 1515 125 366 311 915
415 1220 104 305 252 742 330 970 78 228 256 753 395 1165 139 413 315 930
390 1150 75 220 188 551 250 735 197 582 297 878 515 1515 116 341 280 823
365 1070 84 248 181 531 215 630 80 232 300 879 545 1600 106 314 219 644 250
735 31 91 140 410 242 710 101 300 212 624 245 720 33 96 113 333 178 525 65
193 178 523 250 735 72 212 230 675 350 1030 120 355 291 857 380 1115 89 259
206 601 260 760 54 160 171 504 260 765 89 261 262 772 385 1135 224 663 643
1895 737 2165 27 80 96 282 153 450 57 168 132 391 168 495 216 631 503 1471
587 1720 54 160 164 484 245 720 80 237 234 687 340 1000 106 314 317 935 469
1380 151 446 388 1143 526 1550 138 407 276 812 306 900 31 88 143 417 249
730 106 314 273 802 370 1085 355 1034 615 1816 615 1848 0 43 -20 81 -88 167
-53 67 -896 915 -1377 1385 -413 403 -1365 1337 -2085 2046 -393 386 -1163
1142 -1510 1480 -124 121 -310 304 -415 406 -104 103 -203 199 -220 213 -33
30 -313 304 -745 730 -151 148 -507 497 -790 775 -283 278 -634 622 -780 765
-146 144 -386 380 -535 526 -148 145 -380 373 -515 505 -135 132 -344 337
-465 455 -121 118 -307 300 -415 405 -348 339 -504 491 -540 524 -19 18 -89
84 -155 148 -138 133 -286 274 -332 316 l-32 28 -16 -38z"/>
<path d="M120584 135834 c-83 -56 -99 -72 -834 -797 -500 -495 -715 -705
-1500 -1472 -118 -115 -314 -306 -435 -425 -121 -118 -308 -300 -415 -404
-188 -183 -330 -322 -860 -841 -135 -132 -410 -400 -610 -595 -201 -195 -489
-476 -640 -625 -449 -443 -1044 -1024 -1365 -1335 -93 -91 -248 -242 -345
-336 -96 -93 -267 -260 -380 -370 -112 -109 -297 -289 -410 -400 -550 -537
-678 -662 -840 -820 -96 -93 -283 -276 -415 -405 -132 -128 -323 -315 -425
-414 -477 -466 -665 -650 -1058 -1040 -233 -231 -433 -433 -445 -450 -28 -38
-27 -118 2 -230 24 -95 311 -950 656 -1960 75 -220 185 -544 245 -720 130
-385 517 -1521 601 -1765 33 -96 148 -431 254 -745 106 -313 216 -637 245
-720 154 -448 503 -1473 895 -2635 57 -168 131 -386 165 -485 34 -99 148 -432
252 -740 200 -589 379 -1115 623 -1830 80 -236 294 -866 475 -1400 181 -533
408 -1202 505 -1485 97 -283 313 -918 480 -1410 593 -1748 676 -1993 920
-2705 136 -396 309 -904 385 -1130 76 -225 159 -471 185 -545 71 -206 479
-1405 730 -2145 123 -363 289 -853 370 -1090 81 -236 193 -567 250 -735 57
-168 169 -498 250 -735 81 -236 193 -567 250 -735 57 -168 170 -498 250 -735
296 -868 451 -1324 655 -1925 115 -338 277 -815 360 -1060 84 -245 203 -596
265 -780 62 -184 145 -427 183 -540 39 -113 166 -484 282 -825 199 -583 273
-801 540 -1590 60 -176 160 -473 223 -660 64 -187 184 -540 267 -785 84 -245
205 -602 270 -795 65 -192 191 -564 280 -825 89 -261 251 -738 360 -1060 109
-322 221 -652 250 -735 28 -82 141 -413 250 -735 109 -322 219 -646 245 -720
26 -74 93 -272 150 -440 57 -168 165 -485 240 -705 75 -220 186 -544 245 -720
60 -176 170 -500 245 -720 180 -527 383 -1124 615 -1805 352 -1036 538 -1584
680 -2000 78 -228 188 -552 245 -720 57 -168 239 -703 405 -1190 166 -487 440
-1294 610 -1795 170 -500 388 -1144 485 -1430 98 -286 247 -727 332 -980 228
-678 265 -785 370 -1065 104 -281 171 -440 184 -440 16 0 151 118 344 300 197
187 334 319 1084 1055 135 132 356 348 490 480 135 132 356 349 491 482 135
132 261 256 280 273 19 18 152 147 295 288 430 423 797 784 1046 1027 129 127
352 345 495 485 143 140 361 354 485 475 506 495 737 722 994 975 657 646
1293 1271 1360 1335 124 120 995 976 1310 1287 165 163 311 306 325 318 14 12
133 128 265 258 209 206 465 455 1124 1097 236 229 477 470 575 573 l88 94 -6
48 c-10 77 -85 337 -220 761 -108 343 -208 640 -613 1824 -161 470 -393 1153
-803 2360 -49 143 -183 539 -298 880 -116 341 -274 807 -352 1035 -78 228
-182 532 -230 675 -49 143 -179 526 -290 850 -111 325 -331 973 -490 1440
-158 468 -314 924 -345 1015 -31 91 -99 289 -150 440 -51 151 -127 374 -168
495 -41 121 -161 472 -265 780 -205 602 -396 1163 -604 1770 -71 209 -183 538
-248 730 -278 824 -356 1052 -490 1445 -78 228 -222 651 -320 940 -98 289
-276 811 -395 1160 -119 349 -261 766 -315 925 -54 160 -162 477 -240 705 -78
228 -184 539 -235 690 -51 151 -224 660 -385 1130 -160 470 -390 1145 -510
1500 -297 878 -683 2011 -890 2615 -94 275 -202 592 -240 705 -102 303 -370
1092 -515 1515 -218 637 -382 1117 -510 1495 -68 201 -191 565 -275 810 -83
245 -248 729 -365 1075 -263 774 -473 1393 -640 1880 -70 204 -171 501 -225
660 -54 160 -173 508 -265 775 -92 267 -220 643 -285 835 -65 193 -177 523
-250 735 -72 212 -290 855 -485 1430 -194 575 -389 1151 -433 1280 -44 129
-160 469 -257 755 -97 286 -212 624 -255 750 -310 905 -487 1424 -580 1700
-60 176 -168 493 -240 705 -73 212 -197 576 -277 810 -79 234 -208 610 -285
835 -76 226 -186 547 -243 715 -57 168 -167 492 -245 720 -78 228 -193 566
-255 750 -62 184 -177 522 -255 750 -78 228 -229 674 -336 990 -108 316 -223
654 -256 750 -33 96 -106 312 -163 480 -56 168 -167 492 -245 720 -78 228
-186 546 -240 705 -530 1558 -738 2135 -771 2135 -3 0 -24 -12 -45 -26z"/>
<path d="M33242 132352 c-73 -61 -181 -361 -888 -2467 -404 -1204 -475 -1434
-513 -1665 -6 -36 -42 -169 -81 -295 -74 -239 -505 -1536 -820 -2465 -100
-294 -278 -818 -395 -1165 -222 -655 -553 -1626 -915 -2690 -116 -341 -290
-849 -385 -1130 -96 -280 -264 -775 -375 -1100 -111 -324 -207 -608 -215 -630
-7 -22 -108 -319 -225 -660 -116 -341 -256 -750 -310 -910 -54 -159 -169 -497
-255 -750 -86 -253 -208 -611 -270 -795 -303 -899 -1063 -3137 -1135 -3345
-33 -93 -136 -395 -229 -670 -93 -275 -260 -765 -371 -1090 -111 -324 -284
-833 -385 -1130 -101 -297 -207 -607 -235 -690 -29 -82 -87 -253 -130 -380
-43 -126 -99 -291 -125 -365 -43 -123 -350 -1030 -630 -1860 -62 -184 -193
-567 -290 -850 -97 -283 -217 -632 -265 -775 -48 -143 -111 -327 -140 -410
-29 -82 -139 -406 -245 -720 -107 -313 -320 -941 -475 -1395 -155 -454 -328
-962 -385 -1130 -57 -168 -176 -519 -265 -780 -89 -261 -258 -758 -375 -1105
-117 -346 -279 -823 -360 -1060 -81 -236 -198 -581 -260 -765 -62 -184 -179
-528 -260 -765 -81 -236 -198 -581 -260 -765 -62 -184 -177 -522 -255 -750
-78 -228 -191 -559 -250 -735 -60 -176 -233 -684 -385 -1130 -152 -445 -326
-954 -385 -1130 -60 -176 -183 -538 -275 -805 -91 -267 -250 -730 -351 -1030
-102 -300 -212 -624 -246 -720 -33 -96 -109 -319 -168 -495 -243 -719 -558
-1647 -705 -2080 -86 -253 -194 -570 -240 -705 -46 -135 -163 -477 -260 -760
-356 -1039 -482 -1408 -743 -2180 -55 -162 -169 -495 -252 -740 -84 -245 -203
-596 -265 -780 -62 -184 -184 -542 -270 -795 -86 -253 -259 -764 -385 -1135
-126 -371 -306 -900 -400 -1175 -186 -542 -239 -697 -593 -1745 -239 -704
-643 -1892 -744 -2185 -30 -88 -92 -270 -138 -405 -139 -411 -562 -1639 -733
-2130 -340 -976 -439 -1239 -557 -1490 -46 -96 -102 -222 -125 -280 -88 -218
-1062 -3103 -1131 -3349 -11 -40 -18 -83 -15 -95 11 -42 136 -178 412 -446
313 -303 593 -577 1354 -1325 528 -518 792 -777 1160 -1135 206 -200 479 -466
605 -590 642 -630 1019 -999 1355 -1325 315 -307 555 -541 795 -775 126 -124
322 -316 434 -425 570 -557 1098 -1074 1496 -1466 444 -438 835 -821 1055
-1035 502 -488 848 -826 1280 -1251 135 -133 272 -267 305 -298 33 -32 146
-141 250 -243 389 -381 662 -648 1085 -1062 239 -234 559 -547 710 -695 151
-149 378 -372 505 -495 484 -474 678 -664 905 -887 129 -127 267 -261 305
-298 39 -37 158 -153 265 -259 912 -894 1410 -1366 1441 -1366 4 0 10 8 14 18
21 51 131 368 232 667 281 833 360 1065 493 1455 78 228 193 566 255 750 62
184 140 414 173 510 33 96 140 409 237 695 232 682 417 1223 615 1800 89 259
206 601 260 760 54 160 185 542 290 850 105 308 261 763 345 1010 84 248 240
702 345 1010 187 547 359 1051 693 2035 91 267 188 553 217 635 28 83 141 413
250 735 109 322 219 646 245 720 26 74 91 266 145 425 54 160 162 477 240 705
78 228 233 685 345 1015 112 330 229 674 260 765 31 91 103 302 160 470 57
168 174 512 260 765 86 253 203 597 260 765 265 784 306 906 360 1060 31 91
151 442 265 780 115 338 297 874 405 1190 108 316 268 784 355 1040 87 256
186 546 220 645 89 260 327 955 435 1275 51 151 127 374 168 495 323 946 546
1601 707 2075 104 305 324 953 490 1440 166 487 388 1142 495 1455 106 314
275 809 375 1100 100 292 226 661 280 820 54 160 167 490 250 735 84 245 205
603 270 795 574 1702 1036 3063 1250 3680 198 571 365 1061 645 1890 508 1504
849 2507 1130 3330 70 204 164 480 210 615 46 135 174 511 285 835 111 325
286 840 390 1145 103 305 223 656 265 780 69 200 216 636 574 1695 62 182 137
402 168 490 30 88 140 410 243 715 103 305 216 636 250 735 34 99 108 317 165
485 57 168 169 499 250 735 81 237 191 561 245 720 54 160 166 490 250 735 84
245 196 576 250 735 54 160 166 490 250 735 83 245 208 612 277 815 260 771
659 1944 845 2485 33 96 102 299 153 450 51 151 121 356 155 455 175 502 447
1371 519 1660 17 66 37 176 46 245 99 778 426 1989 721 2673 62 142 304 635
389 792 21 39 64 117 95 175 128 234 302 596 395 820 52 127 73 186 226 635
191 558 269 812 269 876 0 53 -60 138 -171 243 -93 88 -312 301 -789 770 -135
132 -344 337 -465 455 -121 119 -339 333 -485 476 -601 588 -756 741 -975 955
-241 235 -550 538 -945 925 -129 127 -410 401 -625 610 -398 388 -654 638
-1125 1100 -383 377 -707 694 -930 910 -946 922 -1639 1599 -2150 2102 -135
133 -267 262 -295 289 -27 26 -278 272 -557 547 -279 275 -518 508 -530 519
-13 11 -117 112 -233 226 -115 113 -311 305 -435 426 -124 121 -335 328 -470
461 -135 132 -347 339 -470 460 -124 120 -331 322 -460 449 -129 126 -321 313
-425 415 -309 302 -690 675 -1010 990 -300 296 -364 358 -1040 1016 -198 193
-447 436 -555 541 -197 192 -448 430 -506 478 -31 25 -33 25 -52 8z m-9877
-52770 c221 -36 335 -68 565 -162 538 -221 1058 -620 1504 -1155 550 -661
1011 -1564 1327 -2604 62 -204 172 -635 234 -916 91 -414 190 -1064 217 -1430
26 -352 14 -1851 -17 -2200 -3 -27 -12 -126 -20 -220 -38 -417 -111 -820 -240
-1330 -216 -853 -392 -1358 -661 -1898 -246 -492 -556 -972 -884 -1367 -139
-167 -457 -483 -605 -601 -240 -192 -466 -335 -735 -465 -341 -165 -481 -199
-901 -213 -414 -14 -798 7 -970 53 -186 50 -551 228 -779 380 -129 86 -128 85
-240 170 -1256 953 -2171 2857 -2449 5097 -73 586 -94 941 -95 1564 0 503 10
722 50 1155 130 1419 519 2744 1131 3859 454 828 955 1412 1548 1806 120 80
139 91 295 174 133 71 271 134 395 180 33 13 81 31 108 41 74 30 241 67 372
84 66 9 134 18 150 20 17 2 152 3 300 1 213 -2 297 -7 400 -23z"/>
<path d="M22737 75984 c-552 -80 -1075 -544 -1447 -1284 -286 -569 -458 -1232
-522 -2015 -15 -194 -15 -719 0 -905 79 -920 326 -1668 762 -2300 233 -338
473 -550 802 -709 69 -34 129 -61 132 -61 3 0 29 -11 58 -24 210 -95 417 -117
623 -65 519 131 889 421 1250 979 336 519 559 1129 654 1790 70 489 80 1071
25 1560 -116 1038 -501 1965 -1047 2519 -400 407 -835 580 -1290 515z"/>
<path d="M105364 129698 c-85 -75 -191 -175 -424 -404 -113 -110 -293 -285
-400 -390 -471 -458 -1015 -991 -1365 -1336 -143 -141 -271 -266 -285 -278
-33 -29 -244 -235 -919 -900 -310 -305 -580 -570 -600 -589 -20 -18 -149 -144
-286 -280 -335 -329 -674 -662 -1250 -1226 -264 -258 -599 -587 -745 -730
-146 -144 -377 -371 -515 -505 -137 -135 -364 -358 -505 -496 -140 -137 -363
-356 -495 -485 -243 -237 -580 -568 -1025 -1005 -135 -132 -362 -355 -505
-495 -619 -607 -794 -778 -1035 -1014 -140 -138 -363 -356 -495 -485 -131
-129 -359 -352 -505 -495 -146 -144 -371 -364 -500 -491 -582 -570 -801 -785
-1025 -1006 -132 -130 -251 -246 -265 -258 -14 -12 -140 -135 -280 -273 -141
-139 -395 -389 -565 -556 -659 -646 -1598 -1587 -1612 -1615 -24 -45 -12 -160
30 -291 19 -60 98 -297 176 -525 79 -228 182 -532 231 -675 48 -143 111 -327
140 -410 70 -204 516 -1515 765 -2250 112 -330 222 -654 245 -720 49 -139 267
-779 410 -1200 54 -159 139 -409 188 -555 280 -823 793 -2333 1062 -3125 1316
-3879 1332 -3925 1570 -4620 334 -974 590 -1724 805 -2360 117 -346 246 -724
285 -840 68 -199 130 -381 395 -1165 131 -388 223 -657 480 -1410 103 -300
283 -828 400 -1175 214 -632 381 -1123 645 -1895 78 -228 186 -545 240 -705
54 -159 160 -470 235 -690 75 -220 235 -690 355 -1045 120 -355 241 -712 270
-795 28 -82 94 -274 145 -425 51 -151 123 -363 160 -470 36 -107 104 -305 150
-440 45 -135 149 -438 230 -675 80 -236 225 -662 321 -945 97 -283 207 -607
246 -720 38 -113 112 -329 163 -480 51 -151 161 -475 245 -720 84 -245 198
-582 255 -750 57 -168 169 -498 250 -735 81 -236 193 -567 250 -735 57 -168
126 -370 153 -450 28 -80 153 -444 277 -810 125 -366 293 -861 375 -1100 81
-239 238 -700 348 -1025 110 -324 221 -651 247 -725 41 -120 313 -919 570
-1680 100 -294 434 -1277 795 -2335 122 -357 315 -927 430 -1265 199 -586 574
-1686 702 -2060 33 -96 109 -319 168 -495 60 -176 134 -394 165 -485 31 -91
190 -556 352 -1035 162 -478 322 -949 355 -1045 33 -96 106 -312 163 -480 57
-168 162 -478 235 -690 253 -740 413 -1207 505 -1480 51 -151 121 -356 155
-455 34 -99 145 -423 245 -720 101 -297 250 -733 330 -970 81 -236 215 -628
297 -870 82 -242 219 -645 304 -895 86 -250 240 -705 344 -1010 104 -305 281
-827 395 -1160 182 -531 698 -2051 985 -2895 115 -338 325 -954 505 -1480 70
-203 166 -487 215 -630 48 -143 113 -334 145 -425 31 -91 99 -289 150 -440 51
-151 157 -462 235 -690 78 -228 193 -566 255 -750 62 -184 175 -515 250 -735
75 -220 169 -494 207 -610 39 -115 74 -214 79 -219 9 -11 31 6 167 130 138
128 311 294 652 630 258 254 434 426 979 959 124 121 325 317 446 435 451 441
646 632 870 851 504 491 1088 1064 1575 1545 400 395 646 636 1535 1505 116
113 307 300 425 416 118 116 235 230 260 253 25 23 140 135 255 249 116 113
323 316 460 450 138 135 360 353 495 485 135 133 356 349 490 481 135 132 353
345 483 472 131 128 344 337 475 465 130 128 343 336 472 462 230 226 461 451
910 890 124 121 329 322 455 446 127 124 415 405 640 625 226 220 509 497 630
615 121 119 332 326 470 460 137 135 358 351 490 480 240 236 483 473 860 840
394 383 1032 1026 1093 1101 72 90 112 161 112 200 0 91 -378 1222 -1829 5479
-278 813 -647 1900 -851 2500 -227 669 -607 1786 -885 2600 -97 283 -256 754
-354 1045 -99 292 -209 618 -246 725 -37 107 -111 326 -165 485 -54 160 -229
675 -390 1145 -160 470 -336 986 -390 1145 -54 160 -162 477 -240 705 -78 228
-218 640 -312 915 -438 1290 -669 1969 -936 2750 -265 777 -811 2384 -997
2935 -62 184 -242 713 -400 1175 -157 462 -364 1070 -460 1350 -95 281 -277
816 -405 1190 -127 374 -312 916 -410 1205 -98 289 -319 937 -490 1440 -171
503 -394 1158 -495 1455 -269 791 -484 1424 -650 1910 -81 237 -198 581 -260
765 -62 184 -181 535 -265 780 -83 245 -351 1035 -595 1755 -244 721 -457
1348 -473 1395 -68 193 -398 1156 -592 1730 -115 338 -274 809 -355 1045 -81
237 -254 747 -385 1135 -131 388 -293 865 -360 1060 -67 195 -173 506 -235
690 -62 184 -142 421 -178 525 -176 514 -552 1619 -747 2195 -278 823 -658
1937 -717 2105 -48 137 -139 405 -358 1055 -73 217 -199 586 -278 820 -80 234
-211 619 -292 855 -81 237 -191 561 -245 720 -110 324 -363 1065 -786 2305
-75 217 -182 532 -239 700 -57 168 -167 492 -245 720 -78 228 -244 719 -370
1090 -125 371 -335 988 -465 1370 -400 1171 -505 1480 -740 2170 -125 366
-253 744 -287 840 -33 96 -108 319 -168 495 -59 176 -176 520 -260 765 -83
245 -252 742 -375 1105 -123 363 -292 860 -375 1105 -84 245 -194 569 -245
720 -301 892 -490 1410 -514 1410 -4 0 -34 -23 -67 -52z m11331 -52248 c550
-18 710 -52 1065 -229 376 -187 646 -386 986 -725 327 -328 523 -579 829
-1066 83 -132 209 -364 316 -585 583 -1199 911 -2586 980 -4145 13 -293 7
-1019 -11 -1285 -86 -1311 -357 -2518 -795 -3540 -515 -1203 -1259 -2136
-2102 -2633 -234 -138 -531 -267 -712 -308 -149 -34 -257 -39 -736 -38 -531 1
-617 14 -895 126 -834 338 -1595 1079 -2175 2120 -521 932 -897 2117 -1074
3380 -89 637 -129 1471 -101 2123 27 633 61 984 146 1484 188 1117 492 2055
945 2921 395 755 867 1356 1380 1758 132 103 377 272 395 272 3 0 30 16 61 36
122 78 494 245 693 311 90 30 357 38 805 23z"/>
<path d="M116465 73873 c-380 -30 -771 -251 -1086 -614 -226 -260 -471 -677
-624 -1064 -203 -511 -311 -1040 -345 -1693 -54 -1032 145 -2035 557 -2797
331 -614 784 -1040 1249 -1174 54 -15 126 -33 160 -40 77 -14 320 -14 398 0
121 23 292 81 396 136 430 225 697 505 989 1038 300 546 473 1142 558 1925 26
236 26 939 0 1187 -47 460 -145 948 -247 1234 -163 459 -520 1065 -804 1368
-90 95 -288 238 -446 323 -239 127 -519 190 -755 171z"/>
<path d="M76465 118229 c-154 -13 -540 -77 -655 -109 -19 -5 -84 -21 -145 -36
-392 -94 -892 -287 -1385 -533 -176 -88 -232 -118 -380 -199 -25 -13 -74 -40
-110 -60 -36 -19 -90 -49 -120 -67 -30 -18 -93 -55 -140 -83 -47 -27 -101 -58
-120 -69 -261 -148 -985 -620 -1700 -1108 -124 -84 -322 -219 -440 -299 -118
-81 -309 -212 -425 -291 -308 -211 -845 -572 -959 -645 -231 -146 -612 -375
-741 -445 -27 -15 -79 -44 -115 -65 -125 -71 -668 -350 -683 -350 -3 0 -47
-20 -98 -44 -235 -110 -591 -251 -849 -335 -588 -191 -1175 -291 -1710 -291
-381 0 -865 62 -1215 155 -27 8 -84 23 -127 34 -91 25 -357 112 -518 171 -488
177 -1463 506 -1745 590 -33 9 -136 41 -230 70 -160 49 -295 89 -375 111 -60
17 -90 26 -270 77 -314 89 -786 210 -1120 286 -63 15 -133 31 -155 36 -53 13
-317 69 -380 81 -498 97 -943 170 -1275 209 -47 6 -98 12 -115 15 -81 11 -247
29 -425 45 -69 6 -168 15 -220 20 -366 37 -927 53 -1605 47 -313 -3 -608 -8
-655 -11 -329 -21 -414 -27 -485 -36 -44 -5 -127 -14 -185 -20 -253 -26 -551
-74 -755 -120 -349 -80 -525 -129 -812 -225 -588 -198 -1109 -435 -1578 -718
-421 -254 -855 -607 -1147 -930 -50 -56 -105 -118 -123 -137 -102 -114 -312
-396 -424 -570 -242 -377 -468 -849 -599 -1251 -185 -567 -262 -1102 -262
-1824 0 -968 133 -1776 456 -2768 262 -804 489 -1315 937 -2112 95 -170 328
-566 382 -650 17 -27 83 -131 145 -230 292 -466 726 -1078 1056 -1490 406
-509 727 -868 1179 -1321 297 -298 390 -387 631 -605 200 -182 517 -446 760
-635 1217 -946 2570 -1699 4052 -2255 534 -201 1223 -421 1752 -559 341 -89
519 -134 680 -170 298 -67 399 -88 585 -124 44 -8 94 -18 110 -21 288 -56 829
-144 1255 -205 346 -50 448 -64 635 -89 539 -73 578 -77 855 -91 107 -5 328
-16 490 -24 162 -9 471 -22 685 -31 215 -8 487 -19 605 -25 118 -5 424 -17
680 -25 256 -9 600 -23 765 -31 165 -8 383 -19 485 -24 102 -5 286 -16 410
-25 204 -14 228 -18 260 -39 98 -65 1739 -1706 3625 -3626 154 -157 421 -429
594 -605 307 -312 582 -592 1160 -1180 157 -159 400 -407 541 -550 647 -660
852 -869 1100 -1120 146 -148 508 -517 805 -820 297 -302 661 -674 810 -825
148 -151 398 -405 555 -565 157 -159 400 -407 541 -550 140 -143 377 -384 525
-535 265 -270 586 -597 1154 -1175 157 -159 404 -411 550 -560 146 -148 383
-389 526 -535 1115 -1137 1293 -1317 1606 -1635 157 -159 307 -312 333 -340
26 -27 169 -174 318 -325 550 -559 1063 -1081 1817 -1850 547 -558 837 -853
1305 -1330 160 -162 394 -401 520 -529 127 -129 361 -368 521 -530 161 -163
313 -318 339 -346 55 -57 891 -909 1275 -1300 141 -143 371 -377 511 -520 140
-143 384 -392 544 -555 665 -677 784 -798 1041 -1060 293 -299 657 -670 1081
-1100 149 -151 297 -302 328 -335 32 -33 173 -177 314 -320 141 -143 494 -503
786 -800 291 -297 649 -661 795 -810 607 -617 811 -824 880 -895 76 -79 408
-417 875 -890 675 -685 1395 -1418 1425 -1450 17 -19 164 -169 326 -333 380
-385 745 -756 1454 -1477 316 -322 707 -720 870 -885 162 -165 437 -444 610
-620 173 -176 457 -464 630 -640 174 -176 453 -459 621 -630 168 -170 447
-454 620 -630 1071 -1088 1054 -1070 2149 -2180 212 -214 638 -644 948 -955
497 -498 563 -561 557 -530 -7 38 -674 2037 -958 2870 -96 283 -261 767 -365
1075 -105 308 -281 826 -392 1150 -111 325 -289 847 -395 1160 -106 314 -280
822 -385 1130 -105 308 -281 823 -390 1145 -109 322 -271 797 -360 1055 -89
259 -204 594 -255 745 -51 151 -159 469 -240 705 -81 237 -193 567 -250 735
-94 278 -353 1040 -747 2195 -82 242 -203 598 -268 790 -65 193 -184 544 -265
780 -81 237 -196 576 -257 755 -222 656 -289 853 -411 1210 -461 1343 -702
2047 -972 2845 -194 573 -553 1627 -961 2825 -86 250 -237 694 -335 985 -99
292 -207 607 -239 700 -33 94 -142 415 -244 715 -101 300 -213 631 -249 735
-36 105 -144 422 -240 705 -97 283 -203 596 -237 695 -34 99 -135 396 -225
660 -90 264 -270 793 -400 1175 -130 382 -319 938 -420 1235 -101 297 -263
772 -360 1055 -97 283 -221 646 -275 805 -54 160 -160 470 -235 690 -75 220
-190 558 -255 750 -65 193 -202 595 -305 895 -103 300 -236 689 -295 865 -181
535 -479 1412 -660 1940 -94 275 -207 604 -250 730 -198 580 -698 2050 -860
2525 -98 289 -248 730 -334 980 -240 704 -559 1641 -761 2235 -101 297 -319
938 -485 1425 -166 487 -384 1128 -485 1425 -169 497 -454 1335 -825 2425 -82
239 -170 496 -195 570 -26 74 -204 601 -397 1170 -540 1597 -548 1620 -691
2035 -229 663 -472 1318 -513 1383 -11 17 -21 21 -37 16 -45 -13 -328 -148
-832 -394 -582 -284 -749 -362 -915 -426 -362 -140 -498 -130 -728 51 -156
124 -337 355 -714 916 -321 476 -535 778 -868 1228 -1108 1491 -2253 2706
-3275 3476 -44 33 -82 63 -85 66 -9 11 -384 272 -480 334 -738 478 -1470 782
-2125 884 -490 76 -1153 117 -1460 90z"/>
<path d="M47341 104914 c-34 -43 -74 -156 -566 -1609 -118 -346 -327 -963
-466 -1370 -522 -1534 -721 -2124 -1409 -4160 -110 -324 -389 -1145 -765
-2245 -208 -610 -341 -1001 -810 -2380 -141 -415 -286 -840 -322 -945 -35
-104 -113 -334 -173 -510 -121 -357 -486 -1428 -665 -1950 -124 -360 -415
-1218 -620 -1825 -68 -201 -176 -518 -240 -705 -234 -682 -412 -1205 -640
-1880 -128 -379 -290 -856 -360 -1060 -70 -203 -173 -507 -230 -675 -57 -168
-194 -570 -305 -895 -307 -899 -383 -1123 -734 -2160 -311 -919 -534 -1576
-983 -2890 -112 -330 -249 -730 -303 -890 -128 -376 -344 -1010 -510 -1495
-73 -212 -174 -509 -225 -660 -51 -151 -161 -475 -245 -720 -83 -245 -212
-625 -287 -845 -394 -1168 -463 -1371 -1039 -3055 -69 -201 -226 -662 -349
-1025 -123 -363 -292 -860 -375 -1105 -84 -245 -194 -569 -245 -720 -51 -151
-168 -495 -260 -765 -92 -269 -215 -634 -275 -810 -59 -176 -161 -473 -225
-660 -165 -479 -374 -1094 -770 -2265 -189 -558 -412 -1215 -495 -1460 -83
-245 -205 -602 -270 -795 -65 -192 -184 -543 -265 -780 -81 -236 -195 -574
-255 -750 -111 -327 -266 -781 -500 -1465 -172 -502 -373 -1092 -625 -1835
-112 -330 -222 -654 -245 -720 -23 -66 -129 -376 -235 -690 -239 -705 -459
-1351 -571 -1679 -290 -848 -494 -1464 -494 -1493 0 -26 466 -1388 820 -2398
15 -44 66 -190 113 -325 47 -135 149 -427 227 -650 78 -223 197 -565 265 -760
68 -195 174 -499 235 -675 158 -452 249 -712 350 -1005 260 -754 480 -1385
665 -1910 162 -461 316 -902 510 -1460 222 -639 380 -1051 483 -1258 41 -82
57 -103 136 -175 162 -147 385 -362 1020 -987 171 -168 412 -405 536 -526 124
-121 362 -355 530 -520 316 -311 619 -608 965 -944 110 -107 355 -348 545
-536 190 -187 457 -450 595 -585 507 -496 694 -679 870 -850 307 -299 610
-595 1365 -1334 129 -126 354 -348 500 -492 146 -144 276 -271 290 -283 14
-12 216 -211 450 -443 234 -232 522 -516 640 -632 245 -238 583 -570 935 -915
132 -129 353 -345 491 -480 137 -135 441 -432 674 -661 234 -229 452 -442 485
-474 33 -32 182 -177 330 -323 149 -146 376 -369 505 -496 296 -290 679 -665
1020 -1001 146 -143 385 -377 530 -520 146 -142 373 -365 505 -495 132 -129
436 -426 675 -660 239 -234 543 -531 675 -660 318 -312 680 -667 950 -930 412
-403 669 -655 980 -960 170 -168 416 -409 545 -536 129 -126 352 -345 495
-486 143 -141 276 -271 295 -288 68 -63 957 -933 1595 -1560 327 -323 639
-629 984 -965 269 -263 706 -691 1086 -1065 176 -174 428 -421 560 -550 132
-129 355 -348 495 -486 140 -137 363 -356 495 -485 132 -129 359 -351 505
-495 368 -361 695 -681 965 -945 126 -123 353 -346 505 -494 264 -260 446
-438 965 -946 245 -239 566 -554 1010 -990 137 -135 358 -351 490 -480 132
-128 334 -326 450 -439 385 -377 658 -644 870 -851 471 -460 682 -667 935
-915 146 -143 400 -393 565 -555 165 -162 423 -416 575 -565 397 -392 628
-615 685 -664 28 -23 75 -65 106 -92 244 -211 671 -481 945 -595 412 -173 770
-248 1179 -247 730 2 1418 278 2080 833 129 108 463 444 587 591 556 660 1047
1549 1382 2502 357 1016 556 2072 628 3323 16 279 15 1142 -1 1425 -47 834
-141 1517 -312 2260 -327 1423 -927 2710 -1682 3610 -550 655 -669 925 -708
1614 -35 626 56 1062 308 1478 270 444 663 623 1008 459 113 -54 160 -95 800
-711 844 -811 1366 -1321 2170 -2119 336 -333 732 -725 880 -871 382 -375 785
-770 1515 -1490 632 -623 989 -973 1360 -1335 847 -827 988 -962 1105 -1062
258 -220 594 -424 891 -539 230 -89 361 -124 664 -179 86 -15 368 -35 500 -35
1079 2 1981 494 2806 1530 404 507 759 1112 1028 1747 466 1104 762 2372 848
3628 18 257 18 1493 0 1820 -15 280 -36 568 -57 780 -64 633 -282 1620 -525
2380 -283 884 -660 1666 -1099 2280 -96 135 -228 300 -391 490 -254 297 -311
374 -389 531 -112 226 -201 568 -232 897 -16 180 -7 532 20 707 124 811 539
1369 1020 1370 140 0 302 -70 476 -206 153 -119 150 -117 840 -793 127 -124
350 -343 495 -485 146 -143 389 -382 540 -530 152 -149 384 -377 515 -506 132
-129 359 -352 505 -495 146 -143 477 -467 735 -720 259 -253 578 -566 710
-696 784 -769 1440 -1409 1603 -1564 440 -417 1171 -765 1802 -858 267 -40
352 -44 535 -27 449 43 748 125 1131 310 858 415 1641 1260 2238 2415 502 971
869 2175 1055 3460 44 301 65 593 81 1095 18 581 9 1397 -20 1820 -78 1111
-439 2632 -860 3625 -263 620 -810 1513 -1220 1990 -357 416 -505 733 -590
1256 -32 199 -42 377 -30 546 40 560 204 1024 486 1377 112 139 204 209 314
237 55 14 268 39 339 39 161 0 291 -66 503 -259 57 -51 364 -353 683 -670 319
-317 778 -770 1020 -1006 555 -543 904 -887 1614 -1591 1084 -1074 2708 -2672
3191 -3140 186 -181 254 -244 355 -330 39 -32 72 -61 75 -64 11 -12 192 -152
280 -217 247 -182 594 -380 775 -441 301 -102 823 -181 1190 -182 535 0 1118
197 1645 555 254 172 411 304 660 554 352 352 611 686 897 1156 406 666 631
1162 857 1885 327 1051 492 1991 547 3125 15 323 7 1226 -15 1515 -49 646
-112 1141 -212 1655 -44 226 -202 954 -212 977 -7 18 -98 112 -642 664 -179
181 -411 418 -515 525 -105 107 -409 417 -676 689 -267 272 -503 513 -523 535
-21 22 -144 148 -274 280 -274 278 -689 700 -1047 1065 -137 141 -387 395
-555 565 -168 171 -419 427 -559 570 -140 143 -376 384 -525 535 -148 151
-387 394 -530 540 -623 635 -788 803 -1066 1086 -162 165 -403 410 -535 544
-131 135 -365 373 -520 530 -426 434 -1024 1043 -1885 1920 -283 289 -639 651
-790 805 -152 154 -390 397 -530 540 -140 143 -381 388 -536 545 -154 157
-397 404 -540 550 -482 491 -799 813 -1096 1115 -163 165 -306 311 -318 325
-12 14 -141 147 -288 295 -146 149 -395 401 -552 560 -271 276 -433 441 -1124
1145 -165 168 -422 429 -570 580 -149 151 -491 500 -761 775 -269 275 -618
630 -775 790 -157 159 -402 409 -545 554 -143 146 -391 398 -552 561 -160 162
-305 311 -323 330 -18 19 -161 166 -318 325 -274 277 -495 503 -1101 1120
-152 154 -399 406 -551 560 -151 154 -390 397 -530 540 -289 296 -651 664
-1080 1101 -162 165 -410 417 -549 559 -354 361 -746 761 -1065 1085 -149 151
-386 392 -526 535 -140 143 -383 391 -540 550 -157 160 -517 526 -800 815
-283 289 -627 640 -765 780 -484 492 -853 867 -1115 1135 -268 273 -610 622
-1085 1105 -143 146 -378 384 -521 530 -143 146 -377 384 -520 530 -143 146
-377 384 -521 530 -143 146 -297 303 -342 350 -46 47 -196 200 -334 340 -138
140 -366 372 -506 515 -140 143 -383 391 -540 550 -673 684 -1911 1946 -2606
2654 -143 146 -387 394 -542 551 -154 157 -295 301 -313 320 -18 19 -163 168
-323 330 -161 163 -402 408 -536 545 -135 138 -369 376 -521 530 -151 154
-502 512 -780 795 -278 283 -620 632 -761 775 -141 143 -282 287 -314 320 -31
33 -184 188 -339 345 -154 157 -503 511 -775 788 l-493 502 -602 0 c-958 0
-1620 16 -2481 60 -242 13 -914 62 -1025 76 -25 3 -88 9 -140 14 -197 17 -518
50 -585 60 -38 6 -131 17 -205 26 -139 15 -323 40 -560 75 -621 91 -1116 180
-1665 300 -309 67 -514 114 -565 128 -19 6 -89 24 -155 40 -293 73 -702 187
-1055 294 -128 39 -540 176 -695 230 -93 33 -149 54 -387 141 -120 44 -325
124 -363 141 -16 8 -64 27 -105 44 -75 29 -316 131 -401 169 -24 11 -82 36
-129 57 -47 21 -136 62 -199 92 -62 29 -115 53 -118 53 -9 0 -645 320 -763
385 -343 186 -522 289 -865 497 -194 118 -488 311 -801 528 -122 84 -501 361
-584 427 -8 6 -60 47 -115 90 -111 86 -399 322 -515 421 -41 36 -88 76 -105
90 -16 14 -66 57 -110 96 -44 39 -95 85 -114 101 -38 33 -121 109 -246 224
-196 181 -650 639 -863 869 -1280 1384 -2486 3133 -3297 4777 -273 555 -419
896 -661 1544 -175 468 -264 681 -283 681 -5 0 -19 -12 -30 -26z"/>
<path d="M27615 47339 c-52 -28 -83 -50 -178 -126 -159 -129 -274 -161 -590
-163 -101 0 -195 -4 -210 -8 -15 -4 -122 -102 -254 -232 -126 -124 -336 -331
-468 -460 -132 -129 -384 -376 -560 -549 -176 -173 -450 -443 -610 -600 -159
-157 -477 -470 -705 -696 -229 -225 -503 -495 -610 -600 -107 -104 -283 -275
-390 -380 -108 -104 -274 -266 -370 -359 -96 -94 -256 -249 -355 -345 -99 -97
-266 -259 -370 -361 -1264 -1231 -1394 -1359 -1960 -1925 -494 -494 -663 -674
-821 -870 -672 -842 -1149 -2019 -1443 -3562 -114 -594 -116 -636 -116 -1868
1 -1214 8 -1373 81 -1780 223 -1244 488 -2028 966 -2860 325 -564 588 -918
930 -1250 620 -602 1478 -957 2163 -896 249 23 448 66 703 152 283 96 454 198
777 463 259 212 546 476 1165 1071 222 212 758 734 985 956 121 120 236 231
255 249 19 18 150 145 290 284 140 138 491 483 780 766 288 283 633 621 765
751 224 219 343 337 920 899 943 922 1253 1197 1474 1308 94 47 95 47 195 47
110 0 191 -22 319 -87 532 -267 864 -1332 701 -2248 -80 -447 -236 -763 -569
-1145 -536 -615 -968 -1428 -1289 -2420 -175 -544 -329 -1226 -395 -1760 -55
-440 -80 -817 -88 -1365 -23 -1567 193 -2818 693 -4028 88 -212 290 -621 405
-817 420 -720 925 -1290 1444 -1631 296 -194 560 -316 783 -359 181 -35 686
-42 1062 -15 436 32 771 162 1150 448 41 32 77 59 80 62 3 3 37 30 75 61 39
31 81 66 95 79 333 292 387 344 2005 1940 203 201 498 492 655 645 157 154
425 418 595 586 1609 1587 2035 1985 2228 2083 237 119 535 42 772 -200 226
-229 406 -626 489 -1074 90 -486 46 -969 -128 -1413 -104 -267 -234 -479 -454
-742 -710 -847 -1147 -1770 -1497 -3167 -199 -792 -275 -1500 -275 -2558 0
-1079 69 -1683 301 -2615 165 -664 367 -1213 653 -1770 431 -840 951 -1461
1601 -1911 98 -67 342 -214 357 -214 4 0 36 -13 70 -29 125 -57 283 -100 483
-131 167 -27 634 -38 870 -21 495 35 826 169 1269 514 194 151 356 295 635
563 64 62 132 126 151 144 19 18 188 183 375 368 187 185 489 482 670 661 182
179 490 483 685 676 393 387 651 640 1275 1250 398 388 513 501 1110 1085 137
135 420 414 630 621 1090 1078 1251 1229 1430 1348 126 84 182 101 335 101
228 0 383 -70 565 -254 164 -167 289 -385 380 -666 167 -516 179 -1065 35
-1617 -105 -399 -188 -550 -510 -923 -469 -544 -955 -1429 -1257 -2290 -244
-694 -432 -1670 -493 -2555 -6 -82 -12 -175 -15 -205 -3 -30 -10 -203 -15
-385 -30 -979 71 -2020 276 -2840 391 -1564 1076 -2796 1955 -3520 426 -351
775 -530 1159 -595 36 -6 88 -15 115 -20 28 -6 133 -17 235 -26 218 -19 591
-15 735 9 555 92 1003 364 1730 1050 236 224 617 596 1510 1478 231 228 512
505 625 614 305 298 679 666 1099 1080 579 571 1046 1031 1381 1360 471 463
1147 1141 1224 1228 66 74 68 79 56 103 -35 64 -237 272 -705 723 -197 190
-538 524 -915 895 -314 310 -1136 1116 -1490 1461 -124 121 -324 317 -445 435
-121 119 -326 319 -455 446 -482 472 -772 757 -1040 1021 -151 149 -291 286
-310 303 -19 18 -147 143 -285 278 -234 231 -356 349 -960 942 -132 129 -405
397 -605 595 -201 198 -460 452 -576 565 -115 113 -349 342 -519 509 -526 517
-701 688 -1480 1450 -253 248 -516 505 -855 836 -456 445 -1533 1499 -1900
1861 -146 143 -404 397 -575 565 -170 167 -413 406 -540 531 -126 125 -241
236 -255 248 -26 22 -183 176 -615 599 -406 399 -1108 1086 -1460 1430 -549
537 -1537 1507 -2130 2091 -165 163 -496 487 -735 720 -239 234 -574 562 -745
730 -293 289 -477 469 -985 965 -118 116 -312 306 -430 422 -118 116 -233 228
-255 248 -22 21 -148 144 -280 274 -132 130 -369 362 -525 515 -157 154 -436
428 -620 610 -394 389 -805 792 -1125 1106 -127 123 -333 326 -460 450 -126
124 -426 417 -665 650 -623 609 -1284 1257 -1673 1640 -142 140 -261 257 -266
260 -9 5 -959 937 -1741 1707 -135 133 -263 258 -285 279 -22 21 -148 144
-280 273 -380 373 -681 668 -1084 1061 -850 829 -1170 1161 -1240 1284 -98
174 -357 883 -1171 3211 -60 171 -186 531 -280 800 -94 270 -209 598 -255 730
-46 132 -149 429 -230 660 -81 231 -184 528 -230 660 -417 1205 -1001 2821
-1150 3185 -89 219 -88 217 -160 179z"/>
</g>
</svg>
