<?xml version="1.0" standalone="no"?>
<!DOCTYPE svg PUBLIC "-//W3C//DTD SVG 20010904//EN"
 "http://www.w3.org/TR/2001/REC-SVG-20010904/DTD/svg10.dtd">
<svg version="1.0" xmlns="http://www.w3.org/2000/svg"
 width="3333.000000pt" height="3333.000000pt" viewBox="0 0 3333.000000 3333.000000"
 preserveAspectRatio="xMidYMid meet">

<g transform="translate(0.000000,3333.000000) scale(0.100000,-0.100000)"
fill="#000000" stroke="none">
<path d="M3635 28874 c-232 -27 -307 -40 -475 -80 -115 -28 -370 -110 -447
-144 -26 -12 -64 -28 -83 -37 -170 -75 -401 -206 -550 -311 -200 -142 -467
-389 -617 -572 -415 -505 -651 -1068 -725 -1735 -19 -178 -19 -18482 0 -18660
74 -667 310 -1230 725 -1735 150 -183 417 -430 617 -572 154 -109 388 -241
565 -318 28 -12 64 -28 82 -36 58 -26 327 -112 433 -138 134 -33 309 -63 452
-76 79 -8 3986 -10 13128 -8 11994 3 13023 5 13112 20 141 24 200 36 318 64
115 28 370 110 447 144 26 12 64 28 83 37 507 223 968 598 1302 1058 328 452
524 970 590 1560 11 99 13 1729 13 9330 0 7601 -2 9231 -13 9330 -74 667 -310
1230 -725 1735 -150 183 -417 430 -617 572 -149 105 -380 236 -550 311 -19 9
-57 25 -83 37 -77 34 -332 116 -447 144 -118 28 -177 40 -318 64 -89 15 -1115
16 -13142 18 -7175 0 -13058 -1 -13075 -2z m22265 -5857 c189 -51 316 -123
451 -254 139 -135 233 -284 292 -468 61 -188 57 108 57 -4000 l0 -3754 27 -3
c26 -3 27 -5 24 -57 -6 -122 -82 -270 -175 -343 -171 -135 -387 -154 -596 -51
-72 35 -117 78 -1322 1281 l-1246 1245 -24 -19 c-13 -10 -291 -248 -618 -529
-326 -280 -659 -566 -740 -635 -80 -69 -333 -285 -561 -481 -585 -503 -1057
-909 -1709 -1468 -311 -267 -738 -634 -949 -816 -211 -181 -450 -386 -531
-455 -303 -258 -497 -426 -560 -485 -338 -314 -835 -474 -1271 -410 -101 15
-274 56 -314 75 -11 5 -45 19 -75 31 -69 26 -218 110 -285 159 -134 100 -176
144 -640 675 -521 595 -709 809 -715 815 -6 5 -535 608 -600 684 -62 72 -557
636 -1075 1226 -65 74 -224 255 -352 403 -129 147 -239 267 -244 267 -10 0
-81 -61 -528 -455 -112 -99 -241 -211 -286 -250 -45 -38 -135 -117 -201 -175
-65 -58 -247 -218 -404 -355 -157 -137 -287 -252 -290 -255 -3 -3 -133 -118
-290 -255 -157 -137 -375 -328 -485 -425 -110 -96 -330 -290 -490 -430 -159
-139 -310 -272 -335 -294 -49 -44 -46 -41 -470 -412 -157 -136 -287 -251 -290
-254 -3 -3 -131 -116 -285 -250 -153 -135 -412 -362 -575 -505 -796 -698
-1012 -888 -1097 -963 -172 -152 -231 -177 -408 -177 l-120 0 -90 44 c-86 41
-100 53 -285 240 -207 208 -240 252 -275 375 -13 43 -16 83 -13 150 7 148 20
172 223 444 50 66 142 191 205 277 104 142 181 247 404 550 40 55 320 438 621
850 677 926 741 1013 1041 1422 132 180 413 564 625 853 438 600 610 834 795
1087 72 98 230 313 350 478 768 1049 955 1304 1001 1368 29 40 101 138 160
219 60 80 240 326 400 546 262 357 301 407 375 469 273 228 564 350 920 384
291 28 629 -50 883 -204 149 -91 238 -178 1966 -1904 l1765 -1764 120 137
c245 283 278 321 364 419 48 55 147 170 221 256 74 85 190 220 259 299 69 78
143 164 165 190 22 26 82 95 133 154 148 170 267 308 417 481 77 89 210 242
295 340 85 98 173 199 195 225 22 26 96 111 165 190 69 79 157 180 195 225 39
45 99 115 134 156 36 41 164 188 285 328 207 238 281 323 443 511 l65 75 -54
49 c-122 111 -415 376 -483 436 -40 36 -164 148 -275 250 -112 102 -253 230
-315 285 -61 55 -178 161 -260 235 -216 196 -376 341 -580 524 -325 291 -360
334 -400 486 -24 94 -17 241 17 337 66 186 210 321 382 358 50 11 730 13 3871
12 3602 -2 3814 -3 3875 -20z"/>
</g>
</svg>
